***************************************************************
 
http://www.torrentforce.org/imghost/3/greyshadow_tfbanner.png

***************************************************************
 
http://www.torrentforce.org/imghost/4/greyshadow_thetreeoflife.jpg

***************************************************************

FILM TITLE: The Tree of Life (2011)

***************************************************************

Genre: Drama    

Release: 8 July 2011 (UK)

Country: USA

Language: English 

Plot:
The story centers around a family with three boys in the 1950s. 
The eldest son witnesses the loss of innocence.

IMDB Rating: 7.7/10 from (20,716 votes)

Director: Terrence Malick

Writer: Terrence Malick

Stars: Brad Pitt, Sean Penn and Jessica Chastain
 
http://www.imdb.com/title/tt0478304/ 

****************************************************************
 
http://pix2links.com/images/24550148939225591417.png 
http://pix2links.com/images/75744697999643207919.png 
http://pix2links.com/images/75356381748747347466.png 
http://pix2links.com/images/93834918792532053711.png

****************************************************************

[IMG]http://www.torrentforce.org/imghost/2/greyshadow_mediainfo.png[/IMG]
General
Complete name                    : The Tree Of Life 2011 720p BRRip x264 (mkv) [TFRG].mkv
Format                           : Matroska
Format version                   : Version 2
File size                        : 3.35 GiB
Duration                         : 2h 18mn
Overall bit rate                 : 3449 Kbps
Encoded date                     : UTC 2011-09-24 12:57:03
Writing application              : mkvmerge v4.9.1 ('Ich will') built on Jul 11 2011 23:53:15
Writing library                  : libebml v1.2.1 + libmatroska v1.1.1

Video
ID                               : 1
Format                           : AVC
Format/Info                      : Advanced Video Codec
Format profile                   : High@L4.1
Format settings, CABAC           : Yes
Format settings, ReFrames        : 8 frames
Codec ID                         : V_MPEG4/ISO/AVC
Duration                         : 2h 18mn
Bit rate                         : 3000 Kbps
Width                            : 1280 pixels
Height                           : 688 pixels
Display aspect ratio             : 1.860
Frame rate                       : 23.976 fps
Color space                      : YUV
Chroma subsampling               : 4:2:0
Bit depth                        : 8 bits
Scan type                        : Progressive
Bits/(Pixel*Frame)               : 0.142
Stream size                      : 2.85 GiB (85%)
Title                            : AVC MPEG4 Video
Writing library                  : x264 core 116 r2074 2641b9e
Language                         : English
Color primaries                  : BT.709-5, BT.1361, IEC 61966-2-4, SMPTE RP177
Transfer characteristics         : BT.709-5, BT.1361
Matrix coefficients              : BT.709-5, BT.1361, IEC 61966-2-4 709, SMPTE RP177

Audio
ID                               : 2
Format                           : AC-3
Format/Info                      : Audio Coding 3
Mode extension                   : CM (complete main)
Codec ID                         : A_AC3
Duration                         : 2h 18mn
Bit rate mode                    : Constant
Bit rate                         : 448 Kbps
Channel(s)                       : 6 channels
Channel positions                : Front: L C R, Side: L R, LFE
Sampling rate                    : 48.0 KHz
Bit depth                        : 16 bits
Compression mode                 : Lossy
Stream size                      : 445 MiB (13%)
Title                            : AC3 5.1 Audio
Language                         : English

Text #1
ID                               : 3
Format                           : UTF-8
Codec ID                         : S_TEXT/UTF8
Codec ID/Info                    : UTF-8 Plain Text
Title                            : English (Hard Of Hearing) Subtitle sup to srt
Language                         : English

Text #2
ID                               : 4
Format                           : UTF-8
Codec ID                         : S_TEXT/UTF8
Codec ID/Info                    : UTF-8 Plain Text
Title                            : Spanish Subtitle sup to srt
Language                         : Spanish


****************************************************************

Video Source: The Tree Of Life 2011 BluRay 1080p AVC DTS-HD MA7.1-CHDBits (45.9GB) 

Thanks: (chdbits.org)

****************************************************************

I provide a small sample, so please download this to check your 
compatibility first if you are unsure.

****************************************************************

A big thanks to all the sites out there who care and share and
who make it possible for you to download this torrent for free.

Greetz to Ripwyn, mustang, noir, Blackjesus and all the other 
outstanding members of our community of file sharers, and a 
special mention to our friends at 1337x.  

****************************************************************